HIERARCHY
ROOT Hips
{
    OFFSET   0.000000   0.000000   0.000000
    CHANNELS 6 Xposition Yposition Zposition Zrotation Xrotation Yrotation
    JOINT Chest
    {
        OFFSET   0.000000   8.007230   0.000000
        CHANNELS 3 Zrotation Xrotation Yrotation
        JOINT Chest2
        {
            OFFSET   0.000000  22.077100   0.000000
            CHANNELS 3 Zrotation Xrotation Yrotation
            JOINT Neck
            {
                OFFSET   0.000000  23.254800  -0.000021
                CHANNELS 3 Zrotation Xrotation Yrotation
                JOINT Head
                {
                    OFFSET   0.000000  14.370000   1.956610
                    CHANNELS 3 Zrotation Xrotation Yrotation
                    End Site
                    {
                        OFFSET   0.000000  19.566000   0.000000
                    }
                }
            }
            JOINT LeftCollar
            {
                OFFSET   3.911900  19.017000  -0.467063
                CHANNELS 3 Zrotation Xrotation Yrotation
                JOINT LeftShoulder
                {
                    OFFSET  10.383700   0.000000   0.000000
                    CHANNELS 3 Zrotation Xrotation Yrotation
                    JOINT LeftElbow
                    {
                        OFFSET  26.662100   0.001529   0.000325
                        CHANNELS 3 Zrotation Xrotation Yrotation
                        JOINT LeftWrist
                        {
                            OFFSET  28.869000  -0.000011  -0.000096
                            CHANNELS 3 Zrotation Xrotation Yrotation
                            JOINT LeftFinger0
                            {
                                OFFSET   2.044650  -2.323460   3.252850
                                CHANNELS 3 Zrotation Xrotation Yrotation
                                JOINT LeftFinger01
                                {
                                    OFFSET   3.088130   0.000000   0.000000
                                    CHANNELS 3 Zrotation Xrotation Yrotation
                                    JOINT LeftFinger02
                                    {
                                        OFFSET   2.639460   0.000000   0.000000
                                        CHANNELS 3 Zrotation Xrotation Yrotation
                                        End Site
                                        {
                                            OFFSET   2.582190   0.000000   0.000000
                                        }
                                    }
                                }
                            }
                            JOINT LeftFinger1
                            {
                                OFFSET   8.364480   0.000000   3.252850
                                CHANNELS 3 Zrotation Xrotation Yrotation
                                JOINT LeftFinger11
                                {
                                    OFFSET   4.646930   0.000000   0.000000
                                    CHANNELS 3 Zrotation Xrotation Yrotation
                                    JOINT LeftFinger12
                                    {
                                        OFFSET   2.323460   0.000000   0.000000
                                        CHANNELS 3 Zrotation Xrotation Yrotation
                                        End Site
                                        {
                                            OFFSET   2.273050   0.000000   0.000000
                                        }
                                    }
                                }
                            }
                            JOINT LeftFinger2
                            {
                                OFFSET   8.364480   0.000016   1.078090
                                CHANNELS 3 Zrotation Xrotation Yrotation
                                JOINT LeftFinger21
                                {
                                    OFFSET   5.111620   0.000000   0.000000
                                    CHANNELS 3 Zrotation Xrotation Yrotation
                                    JOINT LeftFinger22
                                    {
                                        OFFSET   2.788160   0.000017   0.000000
                                        CHANNELS 3 Zrotation Xrotation Yrotation
                                        End Site
                                        {
                                            OFFSET   2.727660   0.000000   0.000000
                                        }
                                    }
                                }
                            }
                            JOINT LeftFinger3
                            {
                                OFFSET   7.899780   0.000015  -1.078090
                                CHANNELS 3 Zrotation Xrotation Yrotation
                                JOINT LeftFinger31
                                {
                                    OFFSET   4.646920   0.000000   0.000000
                                    CHANNELS 3 Zrotation Xrotation Yrotation
                                    JOINT LeftFinger32
                                    {
                                        OFFSET   2.323470   0.000000   0.000000
                                        CHANNELS 3 Zrotation Xrotation Yrotation
                                        End Site
                                        {
                                            OFFSET   2.273050   0.000000   0.000000
                                        }
                                    }
                                }
                            }
                            JOINT LeftFinger4
                            {
                                OFFSET   7.435090   0.000000  -3.252850
                                CHANNELS 3 Zrotation Xrotation Yrotation
                                JOINT LeftFinger41
                                {
                                    OFFSET   3.717550   0.000000   0.000000
                                    CHANNELS 3 Zrotation Xrotation Yrotation
                                    JOINT LeftFinger42
                                    {
                                        OFFSET   1.858760   0.000000   0.000000
                                        CHANNELS 3 Zrotation Xrotation Yrotation
                                        End Site
                                        {
                                            OFFSET   1.818440   0.000000   0.000000
                                        }
                                    }
                                }
                            }
                        }
                    }
                }
            }
            JOINT RightCollar
            {
                OFFSET  -3.911900  19.017000  -0.467062
                CHANNELS 3 Zrotation Xrotation Yrotation
                JOINT RightShoulder
                {
                    OFFSET -10.383700   0.000015   0.000000
                    CHANNELS 3 Zrotation Xrotation Yrotation
                    JOINT RightElbow
                    {
                        OFFSET -26.662100   0.001341   0.000385
                        CHANNELS 3 Zrotation Xrotation Yrotation
                        JOINT RightWrist
                        {
                            OFFSET -28.869000   0.000025  -0.000080
                            CHANNELS 3 Zrotation Xrotation Yrotation
                            JOINT RightFinger0
                            {
                                OFFSET  -2.044650  -2.323490   3.252850
                                CHANNELS 3 Zrotation Xrotation Yrotation
                                JOINT RightFinger01
                                {
                                    OFFSET  -3.088130   0.000000   0.000000
                                    CHANNELS 3 Zrotation Xrotation Yrotation
                                    JOINT RightFinger02
                                    {
                                        OFFSET  -2.639460   0.000000   0.000000
                                        CHANNELS 3 Zrotation Xrotation Yrotation
                                        End Site
                                        {
                                            OFFSET  -2.582190   0.000000   0.000000
                                        }
                                    }
                                }
                            }
                            JOINT RightFinger1
                            {
                                OFFSET  -8.364480   0.000000   3.252850
                                CHANNELS 3 Zrotation Xrotation Yrotation
                                JOINT RightFinger11
                                {
                                    OFFSET  -4.646930   0.000000   0.000000
                                    CHANNELS 3 Zrotation Xrotation Yrotation
                                    JOINT RightFinger12
                                    {
                                        OFFSET  -2.323470   0.000000   0.000000
                                        CHANNELS 3 Zrotation Xrotation Yrotation
                                        End Site
                                        {
                                            OFFSET  -2.273050   0.000000   0.000000
                                        }
                                    }
                                }
                            }
                            JOINT RightFinger2
                            {
                                OFFSET  -8.364480   0.000000   1.078090
                                CHANNELS 3 Zrotation Xrotation Yrotation
                                JOINT RightFinger21
                                {
                                    OFFSET  -5.111610   0.000000   0.000000
                                    CHANNELS 3 Zrotation Xrotation Yrotation
                                    JOINT RightFinger22
                                    {
                                        OFFSET  -2.788160   0.000000   0.000000
                                        CHANNELS 3 Zrotation Xrotation Yrotation
                                        End Site
                                        {
                                            OFFSET  -2.727660   0.000000   0.000000
                                        }
                                    }
                                }
                            }
                            JOINT RightFinger3
                            {
                                OFFSET  -7.899780   0.000000  -1.078090
                                CHANNELS 3 Zrotation Xrotation Yrotation
                                JOINT RightFinger31
                                {
                                    OFFSET  -4.646920   0.000000   0.000000
                                    CHANNELS 3 Zrotation Xrotation Yrotation
                                    JOINT RightFinger32
                                    {
                                        OFFSET  -2.323470   0.000000   0.000000
                                        CHANNELS 3 Zrotation Xrotation Yrotation
                                        End Site
                                        {
                                            OFFSET  -2.273050   0.000000   0.000000
                                        }
                                    }
                                }
                            }
                            JOINT RightFinger4
                            {
                                OFFSET  -7.435090   0.000000  -3.252850
                                CHANNELS 3 Zrotation Xrotation Yrotation
                                JOINT RightFinger41
                                {
                                    OFFSET  -3.717550   0.000000   0.000000
                                    CHANNELS 3 Zrotation Xrotation Yrotation
                                    JOINT RightFinger42
                                    {
                                        OFFSET  -1.858770   0.000000   0.000000
                                        CHANNELS 3 Zrotation Xrotation Yrotation
                                        End Site
                                        {
                                            OFFSET  -1.818440   0.000000   0.000000
                                        }
                                    }
                                }
                            }
                        }
                    }
                }
            }
        }
    }
    JOINT LeftHip
    {
        OFFSET   9.783010   0.000000   0.000000
        CHANNELS 3 Zrotation Xrotation Yrotation
        JOINT LeftKnee
        {
            OFFSET   0.000070 -41.789100   0.000028
            CHANNELS 3 Zrotation Xrotation Yrotation
            JOINT LeftAnkle
            {
                OFFSET   0.000087 -41.133200  -0.000100
                CHANNELS 3 Zrotation Xrotation Yrotation
                JOINT LeftToe
                {
                    OFFSET   0.000000  -6.358960  14.674500
                    CHANNELS 3 Zrotation Xrotation Yrotation
                    End Site
                    {
                        OFFSET   0.000000   0.000000   3.913200
                    }
                }
            }
        }
    }
    JOINT RightHip
    {
        OFFSET  -9.783020   0.000000   0.000000
        CHANNELS 3 Zrotation Xrotation Yrotation
        JOINT RightKnee
        {
            OFFSET   0.000044 -41.789100  -0.000870
            CHANNELS 3 Zrotation Xrotation Yrotation
            JOINT RightAnkle
            {
                OFFSET  -0.000090 -41.133200  -0.000245
                CHANNELS 3 Zrotation Xrotation Yrotation
                JOINT RightToe
                {
                    OFFSET   0.000000  -6.358960  14.674500
                    CHANNELS 3 Zrotation Xrotation Yrotation
                    End Site
                    {
                        OFFSET   0.000000   0.000000   3.913200
                    }
                }
            }
        }
    }
}
MOTION
Frames: 4
Frame Time:   0.016667
  1.788220  88.943600   3.362230   9.795440 -19.254400  34.340900  -4.103860  14.226400   4.691480  -9.904800  28.003800  10.977100   2.649570   0.714228  -0.033001   4.354500   1.439440  -9.907440  -6.700800  -8.634250   0.412573 -47.236900  31.909400 -49.089200   6.546660 -12.988800 -86.030700 -11.149700 -37.806300   5.093530  61.332200  40.301800 -75.556600  22.926000  -0.000359   0.000230  15.000000   0.004725  -0.005490 -20.644500   3.385670  -8.899980 -17.106300  -0.000795  -0.000226 -11.974400   0.002026  -0.000848 -81.181300  -0.000759   0.004847 -81.181200  -0.004322   0.001374 -60.886000  -0.004580  -0.001361 -36.071200   0.000000   0.002005 -53.958800  -0.001125  -0.000713 -35.969200   0.001826   0.000115 -19.005700   0.007673   0.000601 -28.508500   0.007301   0.009016 -18.986700   0.002016   0.007303   9.435730  -4.106580  12.233400  41.261800  18.783400  55.713500 -10.464000 -24.796300  85.063200  21.153000 -31.725400  13.069500 -31.267200  30.123100  69.257900  44.179800  -0.005052  -0.000325  18.593800  -0.003825   0.004269  88.996600   4.997840   0.083170  82.786000  -0.001218  -0.001346  62.089500   0.001523   0.001542  89.000000   0.003570  -0.000862  96.773100   0.000133   0.003761  72.579800  -0.005723  -0.002888  88.996300  -4.997390  -0.086349 110.000000   0.006566   0.003142  80.000000   0.001492   0.004210  88.984600 -10.000300  -0.176312 110.000000  -0.004054  -0.002581  79.999900  -0.005414   0.000097  -0.190748  11.344200   2.796840   6.144840  17.179600 -10.561900  -8.674260  -9.294170  -2.053900   0.000000   0.000000   0.000000  -1.291940  14.329200 -16.297800   2.946450  27.120200 -22.465600  -4.199160  -3.219950  -7.046120  -0.000000   0.000000   0.000000
  1.995720  89.035600   3.405450   9.676580 -19.421300  33.664600  -4.041010  14.100800   4.691040  -9.749540  27.760900  10.933600   2.480700   0.694787  -0.029932   4.077150   1.401300  -9.680440  -6.710670  -8.595330   0.302348 -47.472000  31.732400 -49.428100   6.544640 -13.020000 -86.020800 -10.893100 -37.653300   5.430570  62.084100  40.480700 -75.624500  23.061100  -0.000470   0.000261  15.000000   0.004713  -0.005595 -21.063900   3.577440  -9.197330 -17.491700  -0.000768  -0.000023 -12.244100   0.001744  -0.000743 -80.991800  -0.000579   0.004795 -80.991800  -0.004206   0.001398 -60.743900  -0.004773  -0.001150 -35.448300  -0.001267   0.000890 -53.369100  -0.001192  -0.000539 -35.507100   0.002129  -0.000776 -19.130900   0.008059   0.000488 -28.696400   0.007671   0.009382 -19.111800   0.001870   0.007689   9.417250  -4.247070  12.153300  41.404100  18.657500  56.008600 -10.450400 -24.515400  85.099600  21.491700 -31.552300  13.221300 -31.287900  30.059700  69.280200  43.884800  -0.005112  -0.000349  18.293600  -0.003936   0.004162  88.996600   4.997850   0.083137  82.672600  -0.000763  -0.001577  62.004500   0.001522   0.001339  89.000000   0.003790  -0.000903  96.705100   0.000432   0.003435  72.528800  -0.005642  -0.003652  88.996300  -4.997370  -0.086338 110.000000   0.006857   0.003062  80.000000   0.001474   0.004262  88.984600 -10.000300  -0.176312 110.000000  -0.004157  -0.002524  79.999900  -0.005454   0.000109  -0.242786  11.919000   2.691690   5.826130  16.683600  -9.695970  -8.581340  -9.187830  -2.015650   0.000000   0.000000   0.000000  -1.643570  14.243500 -16.171600   2.899340  27.666600 -22.000600  -3.765760  -3.118750  -6.588450   0.000000   0.000000   0.000000
  2.179230  89.128400   3.441520   9.514790 -19.583100  32.916300  -3.970890  13.961400   4.690340  -9.580220  27.490600  10.894800   2.305330   0.687202  -0.027373   3.788950   1.387070  -9.509400  -6.719810  -8.524460   0.196779 -47.749000  31.602100 -49.676700   6.523240 -13.134900 -85.984100 -10.437400 -37.334200   5.842700  62.782200  40.674000 -75.732000  23.198300  -0.000561   0.000292  15.000000   0.004702  -0.005702 -21.581900   3.895720  -9.750420 -17.931400  -0.000739   0.000193 -12.551900   0.001456  -0.000624 -80.918500  -0.000390   0.004787 -80.918500  -0.004163   0.001405 -60.688900  -0.004965  -0.000981 -35.072200  -0.002299   0.000135 -52.673200  -0.001247  -0.000354 -35.067300   0.002430  -0.002342 -19.256200   0.008375   0.000374 -28.884300   0.008034   0.009731 -19.236900   0.001683   0.008016   9.422000  -4.373680  12.064800  41.533600  18.634200  56.158800 -10.496300 -24.292500  85.040900  21.770000 -31.419500  13.542500 -31.338600  29.832600  69.248600  43.709700  -0.005158  -0.000376  18.115300  -0.004036   0.004043  88.996600   4.997870   0.083106  82.495800  -0.000304  -0.001810  61.871900   0.001513   0.001118  89.000000   0.004015  -0.000939  96.534500   0.000726   0.003106  72.400900  -0.005541  -0.004426  88.996300  -4.997360  -0.086328 110.000000   0.007139   0.002979  80.000000   0.001451   0.004313  88.984600 -10.000300  -0.176311 110.000000  -0.004261  -0.002469  79.999900  -0.005491   0.000119  -0.244696  12.446100   2.473350   5.479880  16.158100  -8.770070  -8.496840  -9.060050  -1.903500   0.000000   0.000000   0.000000  -1.953650  14.147800 -16.020900   2.844490  28.116500 -21.583400  -3.355050  -3.063590  -6.061290   0.000000   0.000000   0.000000
  2.336290  89.213200   3.453550   9.289200 -19.686900  32.104700  -3.897790  13.795500   4.683910  -9.396880  27.169000  10.833000   2.132910   0.678106  -0.024746   3.505720   1.369700  -9.397370  -6.675340  -8.454290   0.110707 -47.899400  31.627200 -49.907200   6.536040 -13.400600 -85.876400  -9.683210 -36.815400   6.365120  63.609300  40.991700 -76.243800  23.311900  -0.000628   0.000347  15.000000   0.004688  -0.005806 -21.583600   4.211120 -10.475300 -17.967600  -0.000681   0.000423 -12.577200   0.001161  -0.000504 -80.985800  -0.000189   0.004828 -80.985800  -0.004181   0.001375 -60.739400  -0.005150  -0.000853 -34.684300  -0.003582  -0.000884 -52.072300  -0.001305  -0.000173 -34.670700   0.002740  -0.003787 -19.164900   0.008627   0.000261 -28.747500   0.008383   0.010054 -19.145800   0.001458   0.008295   9.433890  -4.446090  12.009700  41.550300  18.736400  56.217100 -10.629900 -24.156900  84.864000  21.948600 -31.418500  13.944900 -31.038000  29.063400  68.643800  43.907900  -0.005197  -0.000406  18.316800  -0.004126   0.003909  88.996600   4.997900   0.083077  82.218800   0.000158  -0.002039  61.664100   0.001491   0.000883  89.000000   0.004253  -0.000970  96.259600   0.001039   0.002775  72.194700  -0.005428  -0.005183  88.996300  -4.997340  -0.086317 110.000000   0.007410   0.002897  80.000000   0.001416   0.004351  88.984600 -10.000400  -0.176310 110.000000  -0.004368  -0.002421  79.999900  -0.005521   0.000134  -0.194569  12.741300   2.204930   5.104850  15.763300  -7.872860  -8.435010  -8.933030  -1.693940  -0.000000   0.000000   0.000000  -2.215040  13.991000 -15.812900   2.813220  28.432000 -21.305600  -3.037600  -3.002630  -5.492500  -0.000000   0.000000   0.000000
